<svg xmlns="http://www.w3.org/2000/svg" width="440" height="566" viewBox="0 0 440 566">
<rect width="100%" height="100%" fill="black"/>
<g fill="white" stroke="none">
<path d="M 65,520 Z"/>
<path d="M 227,470 Z"/>
<path d="M 235,467 Z"/>
<path d="M 79,455 Z"/>
<path d="M 93,449 Z"/>
<path d="M 146,441 Z"/>
<path d="M 76,394 Z"/>
<path d="M 274,347 Z"/>
<path d="M 43,280 Z"/>
<path d="M 153,217 Z"/>
<path d="M 84,214 L 83,215 L 79,215 L 78,216 L 77,216 L 76,217 L 75,217 L 74,218 L 73,218 L 72,219 L 71,219 L 61,229 L 61,230 L 59,232 L 59,233 L 57,235 L 57,236 L 56,237 L 56,239 L 54,241 L 54,242 L 53,243 L 53,248 L 52,249 L 52,251 L 51,252 L 51,271 L 50,272 L 50,274 L 51,275 L 51,280 L 52,281 L 52,283 L 53,284 L 53,288 L 54,289 L 54,291 L 56,293 L 56,295 L 57,296 L 57,297 L 58,298 L 58,299 L 59,300 L 59,301 L 61,303 L 61,304 L 68,311 L 69,311 L 71,313 L 72,313 L 74,315 L 75,315 L 76,316 L 78,316 L 79,317 L 80,317 L 81,318 L 84,318 L 85,319 L 94,319 L 95,318 L 98,318 L 99,317 L 101,317 L 102,316 L 104,316 L 105,315 L 106,315 L 107,314 L 108,314 L 109,313 L 116,313 L 117,314 L 120,314 L 121,315 L 129,315 L 130,314 L 134,314 L 135,313 L 139,313 L 140,312 L 143,312 L 144,311 L 146,311 L 147,310 L 165,310 L 166,311 L 167,311 L 169,313 L 170,313 L 171,314 L 172,314 L 174,316 L 186,316 L 187,315 L 188,315 L 190,313 L 191,313 L 197,307 L 198,307 L 199,306 L 201,306 L 202,305 L 204,305 L 205,306 L 208,306 L 209,307 L 211,307 L 212,308 L 213,308 L 214,309 L 215,309 L 216,310 L 222,310 L 223,309 L 226,309 L 228,307 L 229,307 L 232,304 L 234,304 L 235,303 L 249,303 L 251,301 L 251,300 L 252,299 L 252,298 L 253,297 L 255,297 L 256,298 L 256,300 L 259,303 L 260,303 L 261,304 L 262,304 L 265,307 L 268,307 L 269,308 L 275,308 L 276,307 L 279,307 L 280,306 L 281,306 L 282,305 L 284,305 L 285,304 L 287,304 L 289,302 L 295,302 L 296,301 L 301,301 L 302,300 L 303,300 L 304,301 L 307,301 L 308,302 L 322,302 L 323,301 L 325,301 L 326,300 L 327,300 L 328,299 L 333,299 L 334,298 L 339,298 L 340,297 L 346,297 L 347,296 L 355,296 L 356,297 L 356,299 L 357,300 L 357,301 L 359,303 L 359,304 L 362,307 L 363,307 L 365,309 L 366,309 L 367,310 L 377,310 L 378,309 L 380,309 L 381,308 L 382,308 L 383,307 L 383,306 L 386,303 L 386,301 L 387,300 L 387,299 L 388,298 L 388,290 L 387,289 L 387,285 L 386,284 L 386,280 L 385,279 L 385,268 L 386,267 L 386,250 L 385,249 L 385,247 L 384,246 L 384,245 L 382,243 L 382,242 L 381,242 L 379,240 L 379,239 L 378,239 L 377,238 L 375,238 L 374,237 L 361,237 L 360,238 L 358,238 L 357,237 L 353,237 L 352,236 L 348,236 L 347,237 L 344,237 L 343,238 L 341,238 L 340,237 L 331,237 L 330,238 L 322,238 L 321,239 L 317,239 L 316,238 L 310,238 L 309,239 L 306,239 L 304,241 L 304,242 L 303,243 L 302,243 L 300,241 L 299,241 L 298,240 L 297,240 L 296,239 L 295,239 L 294,238 L 293,239 L 291,239 L 290,238 L 291,237 L 291,228 L 290,227 L 290,225 L 289,224 L 289,223 L 288,222 L 288,221 L 285,218 L 284,218 L 283,217 L 283,216 L 282,216 L 281,215 L 280,215 L 279,214 L 278,214 L 277,215 L 276,214 L 271,214 L 270,215 L 268,215 L 267,216 L 266,216 L 264,218 L 263,218 L 263,219 L 260,222 L 260,223 L 259,224 L 259,226 L 258,227 L 258,239 L 259,240 L 258,241 L 250,241 L 249,242 L 246,242 L 245,241 L 229,241 L 228,242 L 227,242 L 225,244 L 223,244 L 222,243 L 207,243 L 206,242 L 205,243 L 201,243 L 200,244 L 199,244 L 197,246 L 196,246 L 195,247 L 194,247 L 191,250 L 190,250 L 189,251 L 188,251 L 187,250 L 187,249 L 186,248 L 186,247 L 185,246 L 184,246 L 183,245 L 182,245 L 181,244 L 180,244 L 179,243 L 176,243 L 175,242 L 174,242 L 173,243 L 169,243 L 168,244 L 166,244 L 165,245 L 164,245 L 163,244 L 162,244 L 161,243 L 159,243 L 158,244 L 144,244 L 143,245 L 142,244 L 137,244 L 136,243 L 125,243 L 124,244 L 122,244 L 121,245 L 119,245 L 117,243 L 117,235 L 116,234 L 116,231 L 114,229 L 114,226 L 110,222 L 110,221 L 109,220 L 108,220 L 106,218 L 105,218 L 104,217 L 103,217 L 102,216 L 100,216 L 99,215 L 95,215 L 94,214 Z"/>
<path d="M 288,202 Z"/>
<path d="M 369,195 Z"/>
<path d="M 295,189 Z"/>
<path d="M 211,175 Z"/>
<path d="M 242,150 Z"/>
<path d="M 197,117 Z"/>
<path d="M 21,105 Z"/>
<path d="M 431,102 Z"/>
<path d="M 385,96 Z"/>
<path d="M 119,57 Z"/>
<path d="M 4,41 Z"/>
<path d="M 219,32 Z"/>
<path d="M 28,25 Z"/>
<path d="M 233,0 Z"/>
</g>
</svg>